<svg width="405" height="369" viewBox="0 0 405 369" fill="none" xmlns="http://www.w3.org/2000/svg">
<g clip-path="url(#clip0_4_3605)" filter="url(#filter0_d_4_3605)">
<path d="M196.422 300.445V110.5H7.87948V300.445H196.422ZM200.302 304.327H4V106.618H200.302V304.327Z" fill="#0080FF" class="promo__img-bunner-1 svg-elem-1"></path>
<path d="M103.444 157.986L106.159 155.269L161.765 210.907L159.05 213.624L103.444 157.986Z" fill="#0080FF" class="promo__img-bunner-2 svg-elem-2"></path>
<path d="M91.5469 107.006L95.8143 107.653L98.5299 108.429L199.138 209.225L196.422 211.942L91.5469 107.006Z" fill="#0080FF" class="promo__img-bunner-3 svg-elem-3"></path>
<path d="M95.4264 131.332L178.835 214.789L181.292 214.918L184.784 215.306L94.0039 124.344L95.4264 127.45V131.332Z" fill="#0080FF" class="promo__img-bunner-4 svg-elem-4"></path>
<path d="M112.108 109.335L114.953 106.618L200.301 192.145L197.586 194.862L112.108 109.335Z" fill="#0080FF" class="promo__img-bunner-5 svg-elem-5"></path>
<path d="M132.152 109.335L134.868 106.618L199.138 171.054L196.422 173.772L132.152 109.335Z" fill="#0080FF" class="promo__img-bunner-6 svg-elem-6"></path>
<path d="M171.076 110.5L173.921 107.782L199.138 133.143L196.422 135.86L171.076 110.5Z" fill="#0080FF" class="promo__img-bunner-7 svg-elem-7"></path>
<path d="M151.549 109.335L154.265 106.618L199.138 151.646L196.422 154.363L151.549 109.335Z" fill="#0080FF" class="promo__img-bunner-8 svg-elem-8"></path>
<path d="M200.948 214.789C259.011 214.789 306.341 167.432 306.341 109.335C306.341 51.2387 259.011 3.88172 200.948 3.88172C142.885 3.88172 95.5557 51.2387 95.5557 109.335C95.5557 167.432 142.756 214.789 200.948 214.789ZM200.948 218.67C140.558 218.67 91.6763 169.761 91.6763 109.335C91.6763 48.9097 140.558 0 200.948 0C261.339 0 310.22 48.9097 310.22 109.335C310.22 169.761 261.21 218.67 200.948 218.67Z" fill="white" class="promo__img-bunner-9 svg-elem-9"></path>
<path d="M291.599 214.918C349.791 214.918 397.12 167.561 397.12 109.335C397.12 51.1093 349.791 3.75233 291.599 3.75233H200.948C142.756 3.75233 95.4264 51.1093 95.4264 109.335C95.4264 167.561 142.756 214.918 200.948 214.918H291.599ZM291.599 218.8H200.948C140.558 218.8 91.5469 169.761 91.5469 109.335C91.6762 49.0391 140.558 0 200.948 0H291.599C351.989 0 401 49.0391 401 109.465C401 169.89 351.989 218.8 291.599 218.8Z" fill="#FFB32C" class="promo__img-bunner-10 svg-elem-10"></path>
<path fill-rule="evenodd" clip-rule="evenodd" d="M248.019 217.764L304.53 275.473V216.6L248.019 217.764Z" fill="#FFB32C" class="promo__img-bunner-11 svg-elem-11"></path>
<path fill-rule="evenodd" clip-rule="evenodd" d="M83.7879 303.292L27.2769 361V302.127L83.7879 303.292Z" fill="#0080FF" class="promo__img-bunner-12 svg-elem-12"></path>
<path fill-rule="evenodd" clip-rule="evenodd" d="M156.464 189.946C164.999 189.946 171.982 196.933 171.982 205.472C171.982 214.012 164.999 220.999 156.464 220.999C147.929 220.999 140.946 214.012 140.946 205.472C140.946 196.933 147.929 189.946 156.464 189.946Z" fill="#0080FF" class="promo__img-bunner-13 svg-elem-13"></path>
<path d="M156.464 217.118C162.93 217.118 168.102 211.942 168.102 205.472C168.102 199.003 162.93 193.827 156.464 193.827C149.998 193.827 144.825 199.003 144.825 205.472C144.825 211.942 149.998 217.118 156.464 217.118ZM156.464 220.999C147.929 220.999 140.946 214.012 140.946 205.472C140.946 196.933 147.929 189.946 156.464 189.946C164.999 189.946 171.982 196.933 171.982 205.472C171.982 214.142 164.999 220.999 156.464 220.999Z" fill="white" class="promo__img-bunner-14 svg-elem-14"></path>
<path fill-rule="evenodd" clip-rule="evenodd" d="M103.832 193.31C110.556 193.31 115.987 198.744 115.987 205.472C115.987 212.201 110.556 217.635 103.832 217.635C97.1073 217.635 91.676 212.201 91.676 205.472C91.5467 198.744 97.1073 193.31 103.832 193.31Z" fill="white" class="promo__img-bunner-15 svg-elem-15"></path>
<path fill-rule="evenodd" clip-rule="evenodd" d="M52.2348 193.31C58.9592 193.31 64.3905 198.744 64.3905 205.472C64.3905 212.201 58.9592 217.635 52.2348 217.635C45.5104 217.635 40.0791 212.201 40.0791 205.472C40.0791 198.744 45.5104 193.31 52.2348 193.31Z" fill="white" class="promo__img-bunner-16 svg-elem-16"></path>
<path fill-rule="evenodd" clip-rule="evenodd" d="M199.138 93.2907C207.802 93.2907 214.656 100.278 214.656 108.818C214.656 117.357 207.673 124.344 199.138 124.344C190.603 124.344 183.62 117.357 183.62 108.818C183.62 100.278 190.603 93.2907 199.138 93.2907Z" fill="#FFB32C" class="promo__img-bunner-17 svg-elem-17"></path>
<path d="M199.138 120.592C205.604 120.592 210.776 115.416 210.776 108.947C210.776 102.477 205.604 97.3018 199.138 97.3018C192.672 97.3018 187.5 102.477 187.5 108.947C187.5 115.287 192.672 120.592 199.138 120.592ZM199.138 124.474C190.474 124.474 183.62 117.487 183.62 108.947C183.62 100.407 190.603 93.4201 199.138 93.4201C207.673 93.4201 214.656 100.407 214.656 108.947C214.656 117.487 207.802 124.474 199.138 124.474Z" fill="white" class="promo__img-bunner-18 svg-elem-18"></path>
<path fill-rule="evenodd" clip-rule="evenodd" d="M254.485 96.6548C261.21 96.6548 266.641 102.089 266.641 108.818C266.641 115.546 261.21 120.98 254.485 120.98C247.761 120.98 242.329 115.546 242.329 108.818C242.2 102.089 247.631 96.6548 254.485 96.6548Z" fill="white" class="promo__img-bunner-19 svg-elem-19"></path>
<path fill-rule="evenodd" clip-rule="evenodd" d="M307.601 96.6548C314.325 96.6548 319.756 102.089 319.756 108.818C319.756 115.546 314.325 120.98 307.601 120.98C300.876 120.98 295.445 115.546 295.445 108.818C295.445 102.089 300.876 96.6548 307.601 96.6548Z" fill="white" class="promo__img-bunner-20 svg-elem-20"></path>
</g>
<defs>
<filter id="filter0_d_4_3605" x="0" y="0" width="405" height="369" filterUnits="userSpaceOnUse" color-interpolation-filters="sRGB">
<feFlood flood-opacity="0" result="BackgroundImageFix"></feFlood>
<feColorMatrix in="SourceAlpha" type="matrix" values="0 0 0 0 0 0 0 0 0 0 0 0 0 0 0 0 0 0 127 0" result="hardAlpha"></feColorMatrix>
<feOffset dy="4"></feOffset>
<feGaussianBlur stdDeviation="2"></feGaussianBlur>
<feComposite in2="hardAlpha" operator="out"></feComposite>
<feColorMatrix type="matrix" values="0 0 0 0 0 0 0 0 0 0 0 0 0 0 0 0 0 0 0.25 0"></feColorMatrix>
<feBlend mode="normal" in2="BackgroundImageFix" result="effect1_dropShadow_4_3605"></feBlend>
<feBlend mode="normal" in="SourceGraphic" in2="effect1_dropShadow_4_3605" result="shape"></feBlend>
</filter>
<clipPath id="clip0_4_3605">
<rect width="397" height="361" fill="white" transform="translate(4)" class="promo__img-bunner-21 svg-elem-21"></rect>
</clipPath>
</defs>
</svg>


